# xmcd CD database file
#
# Track frame offsets:
#	150
#	12890
#	25063
#	39072
#	47385
#	58398
#	68844
#	79236
#	89898
#	104987
#	115595
#	125582
#	135812
#	146204
#	160132
#	170929
#	180862
#	191767
#	202456
#	217572
#
# Disc length: 3013 seconds
#
# Revision: 1
# Processed by: cddbd v1.5.2PL0 Copyright (c) Steve Scherf et al.
# Submitted via: CDex 2.21
#
DISCID=1f0bc314
DTITLE=01 - 0001
DYEAR=1900
DGENRE=Alternative
TTITLE0=01
TTITLE1=02
TTITLE2=03
TTITLE3=04
TTITLE4=05
TTITLE5=06
TTITLE6=07
TTITLE7=08
TTITLE8=09
TTITLE9=10
TTITLE10=11
TTITLE11=12
TTITLE12=13
TTITLE13=14
TTITLE14=15
TTITLE15=16
TTITLE16=17
TTITLE17=18
TTITLE18=19
TTITLE19=20
EXTD=
EXTT0=
EXTT1=
EXTT2=
EXTT3=
EXTT4=
EXTT5=
EXTT6=
EXTT7=
EXTT8=
EXTT9=
EXTT10=
EXTT11=
EXTT12=
EXTT13=
EXTT14=
EXTT15=
EXTT16=
EXTT17=
EXTT18=
EXTT19=
PLAYORDER=
